<svg
    xmlns="http://www.w3.org/2000/svg"
    version="1.1"
    xmlns:xlink="http://www.w3.org/1999/xlink"
    xmlns:svgjs="http://svgjs.dev/svgjs"
    width="2000"
    height="1500"
    viewBox="0 0 2000 1500">
    <rect
        width="2000"
        height="1500"
        fill="#ed1703">
    </rect>
    <g transform="matrix(0.75,0,0,0.75,249.090909090909,282.7536437246963)">
        <svg
            viewBox="0 0 396 247"
            data-background-color="#ed1703"
            preserveAspectRatio="xMidYMid meet"
            height="1247"
            width="2000"
            xmlns="http://www.w3.org/2000/svg"
            xmlns:xlink="http://www.w3.org/1999/xlink">
            <g
                id="tight-bounds"
                transform="matrix(1,0,0,1,0.2400000000000091,-0.09999999999999432)">
                <svg
                    viewBox="0 0 395.52 247.2"
                    height="247.2"
                    width="395.52">
                    <g>
                        <svg>
                        </svg>
                    </g>
                    <g><svg 
                        viewBox="0 0 395.52 247.2"
                        height="247.2"
                        width="395.52">
                        <g transform="matrix(1,0,0,1,39.55199999999999,69.74354674220965)">
                            <svg
                                viewBox="0 0 316.416 107.71290651558071"
                                height="107.71290651558071"
                                width="316.416">
                            <g>
                            <svg
                                viewBox="0 0 316.416 107.71290651558071"
                                height="107.71290651558071"
                                width="316.416">
                            <g><svg
                                viewBox="0 0 316.416 107.71290651558071"
                                height="107.71290651558071"
                                width="316.416">
                            <g><svg
                                viewBox="0 0 316.416 107.71290651558071"
                                height="107.71290651558071"
                                width="316.416">
                            <g id="textblocktransform"><svg
                                viewBox="0 0 316.416 107.71290651558071"
                                height="107.71290651558071"
                                width="316.416" id="textblock">
                            <g><svg
                                viewBox="0 0 316.416 107.71290651558071"
                                height="107.71290651558071"
                                width="316.416">
                            <g transform="matrix(1,0,0,1,0,0)"><svg
                                width="316.416"
                                viewBox="4.15 -35.4 105.89 36.05"
                                height="107.71290651558071"
                                data-palette-color="#f7e1e1">
                                <path
                                    d="M22.7-34.65Q23.05-34.65 23.25-34.33 23.45-34 23.45-33.5L23.45-33.5Q23.45-32.8 23.13-32.05 22.8-31.3 22.3-31.1L22.3-31.1Q15.15-32.35 8.8-32.4L8.8-32.4 8.8-19.2 21.05-19.2Q21.2-18.6 21.2-18L21.2-18Q21.2-17.3 21.05-16.75L21.05-16.75 8.85-16.75 8.85-5.7Q8.85-2.05 9.5-0.35L9.5-0.35Q8.45 0.55 7.15 0.55L7.15 0.55Q6.15 0.55 5.5-0.05 4.85-0.65 4.85-1.65L4.85-1.65 4.8-28.45Q4.8-31.7 4.15-33.6L4.15-33.6Q4.85-34.2 5.58-34.43 6.3-34.65 7.6-34.65L7.6-34.65 22.7-34.65ZM52.35-3.65Q52.9-2.9 52.9-2.1L52.9-2.1Q52.9-1 51.87-0.25 50.85 0.5 49.4 0.5L49.4 0.5Q47.25 0.5 46.15-1 45.05-2.5 45.05-5.7L45.05-5.7 45.05-7.15Q43.4-3.6 40.57-1.53 37.75 0.55 34.4 0.55L34.4 0.55Q31.5 0.55 29.82-1.03 28.15-2.6 28.15-5.25L28.15-5.25Q28.15-8.2 30.4-10.25 32.65-12.3 36.45-13.35L36.45-13.35Q39.8-14.25 43.4-14.25L43.4-14.25Q44.4-14.25 44.85-14.2L44.85-14.2 44.85-15.5Q44.85-19.95 43.37-22.1 41.9-24.25 38.5-24.25L38.5-24.25Q36.3-24.25 34.8-23.3 33.3-22.35 33.3-20.2L33.3-20.2Q33.3-19.05 33.82-18.05 34.35-17.05 35.45-16.65L35.45-16.65Q34.65-15.65 33.05-15.65L33.05-15.65Q31.4-15.65 30.35-16.98 29.3-18.3 29.3-20.05L29.3-20.05Q29.3-22.95 31.85-24.5 34.4-26.05 38.85-26.05L38.85-26.05Q44-26.05 46.45-23.4 48.9-20.75 48.9-15.25L48.9-15.25 48.9-5.25Q48.9-2.6 50.7-2.6L50.7-2.6Q51.1-2.6 51.6-2.88 52.1-3.15 52.35-3.65L52.35-3.65ZM36-2.25Q38-2.25 40.07-3.73 42.15-5.2 43.52-7.6 44.9-10 44.95-12.6L44.95-12.6 43.8-12.65Q42.05-12.65 40.25-12.38 38.45-12.1 37.2-11.6L37.2-11.6Q35-10.8 33.75-9.4 32.5-8 32.5-6.1L32.5-6.1Q32.5-4.45 33.35-3.35 34.2-2.25 36-2.25L36-2.25ZM68.2-26.05Q70.8-26.05 72.37-24.68 73.95-23.3 73.95-20.85L73.95-20.85Q73.95-19.2 73-18.13 72.05-17.05 70.75-17.05L70.75-17.05Q69.65-17.05 69.25-17.55L69.25-17.55Q69.8-18.4 70-19.13 70.2-19.85 70.2-20.75L70.2-20.75Q70.2-23.85 67.3-23.85L67.3-23.85Q65.05-23.85 63.52-20.98 62-18.1 62-12.05L62-12.05 62-9.35Q62-4.85 62.1-3.25 62.2-1.65 62.65-0.45L62.65-0.45Q61.6 0.45 60.3 0.45L60.3 0.45Q59.3 0.45 58.65-0.18 58-0.8 58-1.9L58-1.9 58-20.3Q58-21.7 57.67-22.3 57.35-22.9 56.6-22.9L56.6-22.9Q55.65-22.9 55.3-22.1L55.3-22.1Q54.7-22.95 54.7-23.7L54.7-23.7Q54.7-24.75 55.5-25.38 56.3-26 57.7-26L57.7-26Q59.65-26 60.62-24.63 61.6-23.25 61.55-20.55L61.55-20.55 61.55-20.3Q62.4-23.15 64.09-24.6 65.8-26.05 68.2-26.05L68.2-26.05ZM81.79-30Q80.69-30 79.89-30.8 79.09-31.6 79.09-32.7L79.09-32.7Q79.09-33.85 79.89-34.63 80.69-35.4 81.79-35.4L81.79-35.4Q82.94-35.4 83.72-34.63 84.49-33.85 84.49-32.7L84.49-32.7Q84.49-31.6 83.72-30.8 82.94-30 81.79-30L81.79-30ZM83.99-5.7Q83.99-2.05 84.64-0.35L84.64-0.35Q83.59 0.55 82.34 0.55L82.34 0.55Q81.34 0.55 80.72-0.05 80.09-0.65 80.09-1.65L80.09-1.65 80.04-19.8Q80.04-23.25 79.39-25.15L79.39-25.15Q80.44-26.05 81.69-26.05L81.69-26.05Q82.69-26.05 83.32-25.48 83.94-24.9 83.94-23.85L83.94-23.85 83.99-5.7ZM99.64 0.65Q94.99 0.65 92.67-1.03 90.34-2.7 90.34-5.4L90.34-5.4Q90.34-6.65 90.94-7.43 91.54-8.2 92.84-8.2L92.84-8.2Q93.34-8.2 93.64-8.15L93.64-8.15Q93.49-7.55 93.49-6.95L93.49-6.95Q93.49-6.4 93.54-6.05L93.54-6.05Q93.64-3.85 95.37-2.55 97.09-1.25 99.99-1.25L99.99-1.25Q102.84-1.25 104.54-2.25 106.24-3.25 106.24-5.2L106.24-5.2Q106.24-7 104.94-8.05 103.64-9.1 100.84-10.35L100.84-10.35 99.24-11.1Q96.44-12.4 94.97-13.3 93.49-14.2 92.42-15.75 91.34-17.3 91.34-19.65L91.34-19.65Q91.34-22.9 93.89-24.5 96.44-26.1 100.34-26.1L100.34-26.1Q104.44-26.1 106.74-24.78 109.04-23.45 109.04-21.1L109.04-21.1Q109.04-19 107.19-18.8L107.19-18.8Q106.69-18.7 106.54-18.7L106.54-18.7Q106.24-18.7 105.74-18.8L105.74-18.8Q105.84-19.4 105.84-19.8L105.84-19.8Q105.84-20.45 105.69-20.9L105.69-20.9Q105.49-22.55 104.07-23.4 102.64-24.25 100.19-24.25L100.19-24.25Q97.94-24.25 96.49-23.43 95.04-22.6 95.04-20.8L95.04-20.8Q95.04-19.3 95.89-18.23 96.74-17.15 97.92-16.48 99.09-15.8 101.49-14.65L101.49-14.65 102.59-14.15Q105.04-13 106.52-12.13 107.99-11.25 109.02-9.85 110.04-8.45 110.04-6.5L110.04-6.5Q110.04-3.55 107.59-1.45 105.14 0.65 99.64 0.65L99.64 0.65Z"
                                    opacity="1"
                                    transform="matrix(1,0,0,1,0,0)"
                                    fill="#f7e1e1"
                                    class="wordmark-text-0"
                                    data-fill-palette-color="primary"
                                    id="text-0">
                                </path>
                            </svg>
                            </g>
                            </svg>
                            </g>
                            </svg>
                            </g>
                            </svg>
                            </g>
                            <g>
                            </g>
                            </svg>
                            </g>
                            </svg>
                        </g>
                    </svg></g>
                    <g><path
                        d="M0 247.2v-247.2h395.52v247.2zM385.806 237.486v-227.772h-376.092v227.772z"
                        fill="#f7e1e1"
                        fill-rule="nonzero"
                        stroke="none"
                        stroke-width="1"
                        stroke-linecap="butt"
                        stroke-linejoin="miter"
                        stroke-miterlimit="10"
                        stroke-dasharray=""
                        stroke-dashoffset="0"
                        font-family="none"
                        font-weight="none"
                        font-size="none"
                        text-anchor="none"
                        style="mix-blend-mode: normal"
                        data-fill-palette-color="tertiary">
                    </path>
                    </g>
                    </svg>
                    </g>
                    <defs>
                    </defs>
                </svg>
                <rect
                    width="395.52"
                    height="247.2"
                    fill="none"
                    stroke="none"
                    visibility="hidden">
                </rect>
            </g>
        </svg>
    </g>
</svg>
